<?xml version="1.0" encoding="UTF-8" standalone="no"?>
<svg
   xmlns:dc="http://purl.org/dc/elements/1.1/"
   xmlns:cc="http://creativecommons.org/ns#"
   xmlns:rdf="http://www.w3.org/1999/02/22-rdf-syntax-ns#"
   xmlns:svg="http://www.w3.org/2000/svg"
   xmlns="http://www.w3.org/2000/svg"
   xmlns:sodipodi="http://sodipodi.sourceforge.net/DTD/sodipodi-0.dtd"
   xmlns:inkscape="http://www.inkscape.org/namespaces/inkscape"
   inkscape:version="1.0 (4035a4fb49, 2020-05-01)"
   sodipodi:docname="foodOnPlateLightGreen.svg"
   xml:space="preserve"
   style="enable-background:new 0 0 463 463;"
   viewBox="0 0 463 463"
   y="0px"
   x="0px"
   id="Capa_1"
   version="1.1"><metadata
   id="metadata47"><rdf:RDF><cc:Work
       rdf:about=""><dc:format>image/svg+xml</dc:format><dc:type
         rdf:resource="http://purl.org/dc/dcmitype/StillImage" /><dc:title></dc:title></cc:Work></rdf:RDF></metadata><defs
   id="defs45" /><sodipodi:namedview
   inkscape:current-layer="Capa_1"
   inkscape:window-maximized="1"
   inkscape:window-y="-12"
   inkscape:window-x="97"
   inkscape:cy="239.88999"
   inkscape:cx="-4.8529828"
   inkscape:zoom="0.90712743"
   showgrid="false"
   id="namedview43"
   inkscape:window-height="1040"
   inkscape:window-width="1811"
   inkscape:pageshadow="2"
   inkscape:pageopacity="0"
   guidetolerance="10"
   gridtolerance="10"
   objecttolerance="10"
   borderopacity="1"
   bordercolor="#666666"
   pagecolor="#ffffff" />
<g
   style="stroke:none;stroke-opacity:1;fill:#d7e3df;fill-opacity:1"
   id="g10">
	<path
   style="stroke:none;stroke-opacity:1;fill:#d7e3df;fill-opacity:1"
   id="path2"
   d="m 455.5,272 h -56.525 c 0.011,-0.166 0.025,-0.331 0.025,-0.5 0,-10.68 -7.162,-19.718 -16.934,-22.566 C 379.218,239.161 370.179,232 359.5,232 c -1.474,0 -2.937,0.14 -4.372,0.414 C 349.74,222.451 339.3,216 327.5,216 c -4.302,0 -8.516,0.894 -12.414,2.591 C 310.888,212.164 303.66,208 295.5,208 c -7.187,0 -13.828,3.316 -18.2,8.722 -1.88,-0.478 -3.826,-0.722 -5.8,-0.722 -7.187,0 -13.828,3.316 -18.2,8.722 -3.285,-0.834 -6.815,-0.949 -10.172,-0.308 C 237.74,214.451 227.3,208 215.5,208 c -8.708,0 -16.914,3.66 -22.785,9.889 -2.884,-1.238 -6.008,-1.889 -9.215,-1.889 -6.838,0 -13.295,3.011 -17.714,8.068 -0.579,0.042 -1.154,0.098 -1.724,0.181 L 63.491,111.557 c -4.125,-4.621 -10.041,-7.372 -16.232,-7.548 -6.198,-0.176 -12.255,2.235 -16.634,6.614 -4.38,4.38 -6.791,10.442 -6.615,16.634 0.175,6.192 2.927,12.108 7.548,16.232 l 109.233,97.485 -4.604,4.604 -0.07,-0.07 c -9.162,-9.162 -24.071,-9.162 -33.233,0 L 76.393,272 H 7.5 c -4.142,0 -7.5,3.357 -7.5,7.5 0,4.143 3.358,7.5 7.5,7.5 h 24 c 12.082,0 23.231,6.561 29.099,17.122 l 12.342,22.217 C 84.135,346.485 105.404,359 128.451,359 H 334.55 c 23.046,0 44.316,-12.515 55.509,-32.661 l 12.342,-22.217 C 408.269,293.56 419.418,287 431.5,287 h 24 c 4.142,0 7.5,-3.357 7.5,-7.5 0,-4.143 -3.358,-7.5 -7.5,-7.5 z M 195.692,235.397 c 2.305,-0.35 4.316,-1.751 5.442,-3.792 2.928,-5.308 8.433,-8.605 14.366,-8.605 7.692,0 14.282,5.253 16.025,12.774 0.552,2.381 2.229,4.344 4.495,5.26 2.266,0.916 4.836,0.67 6.887,-0.657 2.863,-1.853 6.615,-1.773 9.345,0.075 1.927,1.305 4.351,1.641 6.561,0.909 2.209,-0.73 3.955,-2.446 4.723,-4.644 1.197,-3.42 4.397,-5.718 7.964,-5.718 1.706,0 3.349,0.502 4.752,1.452 1.928,1.305 4.352,1.641 6.561,0.909 2.209,-0.73 3.955,-2.446 4.723,-4.644 1.197,-3.42 4.397,-5.718 7.964,-5.718 4.326,0 7.926,3.281 8.375,7.633 0.291,2.82 2.146,5.235 4.797,6.242 2.65,1.008 5.642,0.434 7.732,-1.482 3.089,-2.833 7.03,-4.393 11.097,-4.393 7.692,0 14.282,5.253 16.025,12.774 0.552,2.381 2.229,4.344 4.495,5.26 2.266,0.916 4.836,0.67 6.887,-0.657 1.392,-0.9 2.979,-1.377 4.593,-1.377 4.687,0 8.5,3.813 8.5,8.5 0,4.143 3.358,7.5 7.5,7.5 4.687,0 8.5,3.813 8.5,8.5 0,0.169 0.014,0.334 0.025,0.5 H 258.607 l -26.49,-26.49 c -9.162,-9.162 -24.071,-9.162 -33.233,0 l -0.07,0.07 -14.542,-14.542 c 1.898,0.175 3.685,0.994 5.099,2.352 1.68,1.616 4.016,2.358 6.321,2.009 z M 225.234,272 209.42,256.187 l 0.069,-0.069 c 1.605,-1.605 3.74,-2.489 6.01,-2.489 2.27,0 4.405,0.884 6.01,2.489 L 237.393,272 Z M 39.003,126.833 c -0.06,-2.116 0.731,-4.105 2.228,-5.602 1.444,-1.444 3.346,-2.231 5.377,-2.231 0.075,0 0.149,0.001 0.224,0.004 2.116,0.06 4.058,0.963 5.467,2.542 l 89.23,99.983 -99.984,-89.23 c -1.579,-1.41 -2.482,-3.351 -2.542,-5.466 z M 161.49,241.489 c 1.605,-1.605 3.74,-2.489 6.01,-2.489 2.27,0 4.404,0.884 6.01,2.49 L 204.02,272 h -41.413 l -15.814,-15.813 z m -48,14.628 c 3.314,-3.314 8.706,-3.314 12.021,0 L 141.393,272 H 97.607 Z m 275.799,40.72 -12.342,22.217 C 368.397,334.441 352.152,344 334.549,344 H 128.451 c -17.603,0 -33.848,-9.559 -42.397,-24.946 L 73.712,296.837 C 71.698,293.212 69.243,289.926 66.455,287 h 330.091 c -2.789,2.925 -5.244,6.212 -7.257,9.837 z" />
	<path
   style="stroke:none;stroke-opacity:1;fill:#d7e3df;fill-opacity:1"
   id="path4"
   d="m 327.5,263 c 1.97,0 3.91,-0.8 5.3,-2.2 1.4,-1.39 2.2,-3.33 2.2,-5.3 0,-1.97 -0.8,-3.91 -2.2,-5.3 -1.39,-1.4 -3.33,-2.2 -5.3,-2.2 -1.98,0 -3.91,0.8 -5.3,2.2 -1.4,1.39 -2.2,3.33 -2.2,5.3 0,1.97 0.8,3.91 2.2,5.3 1.39,1.4 3.32,2.2 5.3,2.2 z" />
	<path
   style="stroke:none;stroke-opacity:1;fill:#d7e3df;fill-opacity:1"
   id="path6"
   d="m 295.5,255 c 1.97,0 3.91,-0.8 5.3,-2.2 1.4,-1.39 2.2,-3.33 2.2,-5.3 0,-1.98 -0.8,-3.91 -2.2,-5.3 -1.39,-1.4 -3.33,-2.2 -5.3,-2.2 -1.97,0 -3.91,0.8 -5.3,2.2 -1.4,1.39 -2.2,3.319 -2.2,5.3 0,1.97 0.8,3.91 2.2,5.3 1.39,1.4 3.33,2.2 5.3,2.2 z" />
	<path
   style="stroke:none;stroke-opacity:1;fill:#d7e3df;fill-opacity:1"
   id="path8"
   d="m 271.5,263 c 1.97,0 3.91,-0.8 5.3,-2.2 1.4,-1.39 2.2,-3.33 2.2,-5.3 0,-1.97 -0.8,-3.91 -2.2,-5.3 -1.39,-1.4 -3.33,-2.2 -5.3,-2.2 -1.98,0 -3.91,0.8 -5.3,2.2 -1.4,1.39 -2.2,3.33 -2.2,5.3 0,1.97 0.8,3.91 2.2,5.3 1.39,1.4 3.32,2.2 5.3,2.2 z" />
</g>
<g
   id="g12">
</g>
<g
   id="g14">
</g>
<g
   id="g16">
</g>
<g
   id="g18">
</g>
<g
   id="g20">
</g>
<g
   id="g22">
</g>
<g
   id="g24">
</g>
<g
   id="g26">
</g>
<g
   id="g28">
</g>
<g
   id="g30">
</g>
<g
   id="g32">
</g>
<g
   id="g34">
</g>
<g
   id="g36">
</g>
<g
   id="g38">
</g>
<g
   id="g40">
</g>
</svg>
