<?xml version="1.0" encoding="UTF-8" standalone="no"?>
<svg
   xmlns:dc="http://purl.org/dc/elements/1.1/"
   xmlns:cc="http://creativecommons.org/ns#"
   xmlns:rdf="http://www.w3.org/1999/02/22-rdf-syntax-ns#"
   xmlns:svg="http://www.w3.org/2000/svg"
   xmlns="http://www.w3.org/2000/svg"
   xmlns:sodipodi="http://sodipodi.sourceforge.net/DTD/sodipodi-0.dtd"
   xmlns:inkscape="http://www.inkscape.org/namespaces/inkscape"
   inkscape:version="1.0 (4035a4fb49, 2020-05-01)"
   sodipodi:docname="heartOrange.svg"
   xml:space="preserve"
   width="96px"
   viewBox="0 0 96 96"
   version="1.1"
   id="heart"
   height="96px"
   enable-background="new 0 0 96 96"><metadata
     id="metadata9"><rdf:RDF><cc:Work
         rdf:about=""><dc:format>image/svg+xml</dc:format><dc:type
           rdf:resource="http://purl.org/dc/dcmitype/StillImage" /><dc:title></dc:title></cc:Work></rdf:RDF></metadata><defs
     id="defs7" /><sodipodi:namedview
     inkscape:current-layer="heart"
     inkscape:window-maximized="1"
     inkscape:window-y="-12"
     inkscape:window-x="97"
     inkscape:cy="32.668118"
     inkscape:cx="36.818833"
     inkscape:zoom="4.375"
     showgrid="false"
     id="namedview5"
     inkscape:window-height="1040"
     inkscape:window-width="1811"
     inkscape:pageshadow="2"
     inkscape:pageopacity="0"
     guidetolerance="10"
     gridtolerance="10"
     objecttolerance="10"
     borderopacity="1"
     bordercolor="#666666"
     pagecolor="#ffffff" /><path
     style="fill:#f97a1d;fill-opacity:1"
     id="path2"
     d="M87.598,15.029c-9.373-9.373-24.568-9.373-33.94,0L48,20.686l-5.657-5.656c-9.373-9.373-24.569-9.373-33.941,0  c-9.373,9.373-9.373,24.568,0,33.941l5.657,5.654L48,88.566l33.941-33.941l5.656-5.654C96.971,39.598,96.971,24.402,87.598,15.029z   M70.627,54.627L48,77.254L25.374,54.627L14.061,43.314c-6.249-6.248-6.249-16.379,0-22.629c6.249-6.248,16.379-6.248,22.627,0  L48,32l11.314-11.314c6.248-6.248,16.379-6.248,22.627,0c6.248,6.25,6.248,16.379,0,22.629L70.627,54.627z" /></svg>
