<?xml version="1.0" encoding="UTF-8" standalone="no"?>
<svg
   xmlns:dc="http://purl.org/dc/elements/1.1/"
   xmlns:cc="http://creativecommons.org/ns#"
   xmlns:rdf="http://www.w3.org/1999/02/22-rdf-syntax-ns#"
   xmlns:svg="http://www.w3.org/2000/svg"
   xmlns="http://www.w3.org/2000/svg"
   xmlns:sodipodi="http://sodipodi.sourceforge.net/DTD/sodipodi-0.dtd"
   xmlns:inkscape="http://www.inkscape.org/namespaces/inkscape"
   inkscape:version="1.0 (4035a4fb49, 2020-05-01)"
   sodipodi:docname="laptopScreenDarkGreen.svg"
   id="svg90"
   version="1.1"
   width="512"
   viewBox="0 0 74 74"
   height="512">
  <metadata
     id="metadata96">
    <rdf:RDF>
      <cc:Work
         rdf:about="">
        <dc:format>image/svg+xml</dc:format>
        <dc:type
           rdf:resource="http://purl.org/dc/dcmitype/StillImage" />
        <dc:title></dc:title>
      </cc:Work>
    </rdf:RDF>
  </metadata>
  <defs
     id="defs94" />
  <sodipodi:namedview
     inkscape:current-layer="svg90"
     inkscape:window-maximized="1"
     inkscape:window-y="-12"
     inkscape:window-x="97"
     inkscape:cy="365.33278"
     inkscape:cx="59.688774"
     inkscape:zoom="0.45254834"
     showgrid="false"
     id="namedview92"
     inkscape:window-height="1040"
     inkscape:window-width="1811"
     inkscape:pageshadow="2"
     inkscape:pageopacity="0"
     guidetolerance="10"
     gridtolerance="10"
     objecttolerance="10"
     borderopacity="1"
     bordercolor="#666666"
     pagecolor="#ffffff" />
  <g
     style="stroke:none;stroke-opacity:1;fill:#0d4740;fill-opacity:1"
     id="Icons">
    <path
       style="stroke:none;stroke-opacity:1;fill:#0d4740;fill-opacity:1"
       id="path71"
       d="M 60.375,60.8 H 13.625 A 11.638,11.638 0 0 1 2,49.173 a 1,1 0 0 1 1,-1 h 27.5 a 1,1 0 1 1 0,2 H 4.052 a 9.637,9.637 0 0 0 9.573,8.627 h 46.75 a 9.637,9.637 0 0 0 9.573,-8.625 H 43.5 a 1,1 0 0 1 0,-2 H 71 a 1,1 0 0 1 1,1 A 11.638,11.638 0 0 1 60.375,60.8 Z" />
    <path
       style="stroke:none;stroke-opacity:1;fill:#0d4740;fill-opacity:1"
       id="path73"
       d="m 49.44,16.53 h -2.97 a 1,1 0 1 1 0,-2 h 2.97 a 1,1 0 0 1 0,2 z" />
    <path
       style="stroke:none;stroke-opacity:1;fill:#0d4740;fill-opacity:1"
       id="path75"
       d="m 10.44,50.17 a 1,1 0 0 1 -1,-1 V 19.78 a 5.256,5.256 0 0 1 5.25,-5.25 h 14.87 a 1,1 0 0 1 0,2 H 14.69 a 3.254,3.254 0 0 0 -3.25,3.25 v 29.39 a 1,1 0 0 1 -1,1 z" />
    <path
       style="stroke:none;stroke-opacity:1;fill:#0d4740;fill-opacity:1"
       id="path77"
       d="m 39.47,16.53 h -2.91 a 1,1 0 1 1 0,-2 h 2.91 a 1,1 0 0 1 0,2 z" />
    <path
       style="stroke:none;stroke-opacity:1;fill:#0d4740;fill-opacity:1"
       id="path79"
       d="m 63.56,50.17 a 1,1 0 0 1 -1,-1 V 19.78 a 3.254,3.254 0 0 0 -3.25,-3.25 h -2.87 a 1,1 0 1 1 0,-2 h 2.87 a 5.256,5.256 0 0 1 5.25,5.25 v 29.39 a 1,1 0 0 1 -1,1 z" />
    <path
       style="stroke:none;stroke-opacity:1;fill:#0d4740;fill-opacity:1"
       id="path81"
       d="m 41.973,54.328 h -9.946 a 1,1 0 0 1 -0.938,-0.654 l -1.53,-4.155 a 1.0000762,1.0000762 0 1 1 1.877,-0.691 l 1.289,3.5 h 8.55 l 1.289,-3.5 a 1.0000762,1.0000762 0 1 1 1.877,0.691 l -1.53,4.155 a 1,1 0 0 1 -0.938,0.654 z" />
    <path
       style="stroke:none;stroke-opacity:1;fill:#0d4740;fill-opacity:1"
       id="path83"
       d="m 51.089,31.586 a 1,1 0 0 1 -0.707,-0.293 18.946,18.946 0 0 0 -26.764,0 1.0012642,1.0012642 0 0 1 -1.418,-1.414 20.948,20.948 0 0 1 29.592,0 1,1 0 0 1 -0.707,1.707 z" />
    <path
       style="stroke:none;stroke-opacity:1;fill:#0d4740;fill-opacity:1"
       id="path85"
       d="m 46.531,36.144 a 1,1 0 0 1 -0.707,-0.293 12.494,12.494 0 0 0 -17.648,0 1,1 0 0 1 -1.414,-1.414 14.5,14.5 0 0 1 20.476,0 1,1 0 0 1 -0.707,1.707 z" />
    <path
       style="stroke:none;stroke-opacity:1;fill:#0d4740;fill-opacity:1"
       id="path87"
       d="m 41.973,40.7 a 1,1 0 0 1 -0.707,-0.293 6.04,6.04 0 0 0 -8.532,0 A 1,1 0 1 1 31.32,39 a 8.039,8.039 0 0 1 11.36,0 1,1 0 0 1 -0.707,1.707 z" />
  </g>
</svg>
