<?xml version="1.0" encoding="UTF-8" standalone="no"?>
<svg
   xmlns:dc="http://purl.org/dc/elements/1.1/"
   xmlns:cc="http://creativecommons.org/ns#"
   xmlns:rdf="http://www.w3.org/1999/02/22-rdf-syntax-ns#"
   xmlns:svg="http://www.w3.org/2000/svg"
   xmlns="http://www.w3.org/2000/svg"
   xmlns:sodipodi="http://sodipodi.sourceforge.net/DTD/sodipodi-0.dtd"
   xmlns:inkscape="http://www.inkscape.org/namespaces/inkscape"
   inkscape:version="1.0 (4035a4fb49, 2020-05-01)"
   sodipodi:docname="leafLightGreen.svg"
   xml:space="preserve"
   style="enable-background:new 0 0 512 512;"
   viewBox="0 0 512 512"
   y="0px"
   x="0px"
   id="Layer_1"
   version="1.1"><metadata
   id="metadata43"><rdf:RDF><cc:Work
       rdf:about=""><dc:format>image/svg+xml</dc:format><dc:type
         rdf:resource="http://purl.org/dc/dcmitype/StillImage" /><dc:title></dc:title></cc:Work></rdf:RDF></metadata><defs
   id="defs41" /><sodipodi:namedview
   inkscape:current-layer="Layer_1"
   inkscape:window-maximized="1"
   inkscape:window-y="-12"
   inkscape:window-x="97"
   inkscape:cy="299.70884"
   inkscape:cx="15.699415"
   inkscape:zoom="0.8203125"
   showgrid="false"
   id="namedview39"
   inkscape:window-height="1040"
   inkscape:window-width="1811"
   inkscape:pageshadow="2"
   inkscape:pageopacity="0"
   guidetolerance="10"
   gridtolerance="10"
   objecttolerance="10"
   borderopacity="1"
   bordercolor="#666666"
   pagecolor="#ffffff" />
<g
   style="fill:#d7e3df;fill-opacity:1"
   id="g6">
	<g
   style="fill:#d7e3df;fill-opacity:1"
   id="g4">
		<path
   style="fill:#d7e3df;fill-opacity:1"
   id="path2"
   d="M 509.705,233.902 C 490.025,115.786 338.939,10.713 332.514,6.297 c -3.983,-2.738 -9.413,-2.095 -12.635,1.536 -2.048,2.3 -32.785,37.648 -50.651,99.859 C 161.905,25.126 14.777,42.372 8.427,43.164 3.617,43.766 0,47.857 0,52.709 0,303.853 114.899,362.165 167.112,375.69 c -23.523,17.905 -49.636,42.111 -78.159,74.709 -2.442,2.79 -2.987,6.745 -1.512,10.155 1.475,3.41 4.857,5.665 8.567,5.796 0.836,0.028 21.437,1.024 112.861,28.455 27.957,8.389 51.884,12.588 72.447,12.588 22.856,0 41.541,-5.195 56.937,-15.604 25.59,-17.299 40.597,-48.739 45.834,-95.531 11.839,2.461 19.627,2.388 19.934,2.388 h 0.005 0.005 c 0.04,0 0.077,0.174 0.117,0.174 0.493,-0.007 0.987,0.044 1.47,-0.04 0.249,-0.04 0.484,-0.073 0.728,-0.134 0.24,-0.059 0.484,-0.075 0.719,-0.155 0.024,-0.007 0.096,-0.021 0.197,-0.056 0.021,-0.007 0.042,-0.009 0.066,-0.016 6.139,-2.161 122.297,-45.01 102.377,-164.517 z M 19.286,61.497 c 33.189,-2.381 156.449,-5.613 243.974,65.994 0.268,0.219 0.563,0.375 0.845,0.559 -7.248,33.339 -10.334,73.017 -4.293,118.319 4.018,30.125 12.137,54.291 22.557,73.699 C 167.187,286.075 76.858,107.958 75.942,106.119 c -2.386,-4.753 -8.163,-6.693 -12.908,-4.298 -4.753,2.377 -6.679,8.149 -4.302,12.903 3.682,7.361 84.549,166.881 196.748,215.951 -18.152,4.138 -40.43,12.865 -66.503,29.648 C 164.946,358.135 22.288,333.571 19.286,61.497 Z m 308.193,414.36 c -23.748,16.045 -60.752,16.233 -113.086,0.517 -52.616,-15.782 -82.583,-23.062 -99.202,-26.416 30.014,-32.609 56.778,-55.162 80.054,-70.662 1.724,-0.538 3.229,-1.531 4.382,-2.86 61.393,-39.3 97.405,-28.92 103.183,-26.809 3.959,4.488 8.041,8.57 12.196,12.281 -84.589,10.578 -112.098,81.057 -112.384,81.823 -1.86,4.979 0.657,10.521 5.627,12.391 1.118,0.413 2.255,0.611 3.382,0.611 3.889,0 7.562,-2.377 9.009,-6.238 0.263,-0.714 27.543,-70.719 116.045,-70.719 0.881,0 1.717,-0.155 2.527,-0.378 9.061,5.218 17.938,9.046 26.083,11.858 -4.277,42.574 -16.647,70.291 -37.816,84.601 z m 88.858,-102.189 c 20.775,-146.6 -49.516,-245.374 -52.635,-249.667 -3.119,-4.288 -9.131,-5.228 -13.424,-2.123 -4.293,3.119 -5.251,9.131 -2.142,13.433 0.728,1.009 71.311,100.63 47.915,243.805 -9.981,-1.264 -28.112,-4.998 -47.341,-16.092 -38.769,-22.367 -62.264,-62.471 -69.826,-119.192 -15.406,-115.58 33.415,-193.664 50.052,-216.388 30.409,22.555 145.815,113.744 161.795,209.615 13.674,82.05 -45.232,122.085 -74.394,136.609 z" />
	</g>
</g>
<g
   id="g8">
</g>
<g
   id="g10">
</g>
<g
   id="g12">
</g>
<g
   id="g14">
</g>
<g
   id="g16">
</g>
<g
   id="g18">
</g>
<g
   id="g20">
</g>
<g
   id="g22">
</g>
<g
   id="g24">
</g>
<g
   id="g26">
</g>
<g
   id="g28">
</g>
<g
   id="g30">
</g>
<g
   id="g32">
</g>
<g
   id="g34">
</g>
<g
   id="g36">
</g>
</svg>
