<?xml version="1.0" encoding="UTF-8" standalone="no"?>
<svg
   xmlns:dc="http://purl.org/dc/elements/1.1/"
   xmlns:cc="http://creativecommons.org/ns#"
   xmlns:rdf="http://www.w3.org/1999/02/22-rdf-syntax-ns#"
   xmlns:svg="http://www.w3.org/2000/svg"
   xmlns="http://www.w3.org/2000/svg"
   xmlns:sodipodi="http://sodipodi.sourceforge.net/DTD/sodipodi-0.dtd"
   xmlns:inkscape="http://www.inkscape.org/namespaces/inkscape"
   inkscape:version="1.0 (4035a4fb49, 2020-05-01)"
   sodipodi:docname="pepperDarkGreen.svg"
   id="svg4"
   version="1.1"
   width="682pt"
   viewBox="-55 -21 682 682.66669"
   height="682pt">
  <metadata
     id="metadata10">
    <rdf:RDF>
      <cc:Work
         rdf:about="">
        <dc:format>image/svg+xml</dc:format>
        <dc:type
           rdf:resource="http://purl.org/dc/dcmitype/StillImage" />
        <dc:title></dc:title>
      </cc:Work>
    </rdf:RDF>
  </metadata>
  <defs
     id="defs8" />
  <sodipodi:namedview
     inkscape:current-layer="svg4"
     inkscape:window-maximized="1"
     inkscape:window-y="-12"
     inkscape:window-x="97"
     inkscape:cy="190.99234"
     inkscape:cx="198.16678"
     inkscape:zoom="0.32659624"
     showgrid="false"
     id="namedview6"
     inkscape:window-height="1040"
     inkscape:window-width="1811"
     inkscape:pageshadow="2"
     inkscape:pageopacity="0"
     guidetolerance="10"
     gridtolerance="10"
     objecttolerance="10"
     borderopacity="1"
     bordercolor="#666666"
     pagecolor="#ffffff" />
  <path
     style="fill:#0d4740;fill-opacity:1"
     id="path2"
     d="m530.027344 204.613281c-37.195313-36.714843-90.085938-46.113281-134.847656-31.015625-32.523438-39.203125-83.167969-58.695312-134.414063-50.476562 1.851563-27.007813 13.230469-52.164063 32.5625-71.511719 21.203125-21.183594 49.359375-32.859375 79.328125-32.859375h14.0625c5.160156.015625 9.359375 4.214844 9.375 9.375v28.125c-.015625 5.160156-4.214844 9.359375-9.375 9.375h-14.0625c-21.476562 0-41.578125 10.550781-53.765625 28.222656-2.910156 4.195313-1.9375 10.039063 2.371094 13.042969 4.292969 2.960937 10.132812 1.839844 13.054687-2.390625 8.722656-12.601562 23.046875-20.125 38.339844-20.125h14.0625c7.507812 0 14.574219-2.925781 19.886719-8.238281s8.238281-12.371094 8.238281-19.886719v-28.125c0-7.515625-2.925781-14.574219-8.238281-19.886719s-12.378907-8.238281-19.886719-8.238281h-14.0625c-35.226562 0-68.183594 13.945312-92.589844 38.351562-23.09375 23.09375-37.425781 54.542969-38.304687 89.171876-26.933594 8.21875-51.078125 24.296874-69.140625 46.066406-51.59375-17.382813-112.402344-2.058594-148.488282 46.765625-25.222656 34.128906-32.558593 76.925781-20.125 117.421875l72.09375 234.875c11.75 38.261718 47.519532 67.347656 91.183594 67.347656 20.585938 0 40.515625-6.671875 56.917969-18.886719 17.417969 12.210938 38.324219 18.886719 59.691406 18.886719 23.941407 0 47.320313-8.355469 65.835938-23.519531 19.976562-16.367188 33.101562-39.363281 36.949219-64.730469.773437-5.125-2.742188-9.90625-7.863282-10.679688-5.121094-.78125-9.898437 2.742188-10.671875 7.867188-6.324219 41.679688-42.433593 72.3125-84.25 72.3125-41.9375 0-77.9375-30.761719-84.242187-72.3125-.777344-5.125-5.5625-8.648438-10.675782-7.867188-5.121093.773438-8.636718 5.554688-7.863281 10.671876 3.265625 21.53125 13.226563 41.320312 28.363281 56.828124-12.460937 8.230469-27.109374 12.679688-42.191406 12.679688-33.882812 0-63.328125-21.742188-73.257812-54.101562l-72.09375-234.875c-10.671875-34.75-4.371094-71.476563 17.277344-100.769532 29.1875-39.492187 77.949218-54.140625 121.835937-41.851562-14.191406 22.808594-21.652344 48.867187-21.652344 76.109375 0 5.175781 4.199219 9.375 9.375 9.375 5.179688 0 9.375-4.199219 9.375-9.375 0-27.449219 8.683594-53.53125 25.117188-75.417969 50.488281-67.265625 151.058593-66.910156 201.277343.003906 16.429688 21.886719 25.113282 47.96875 25.113282 75.414063 0 5.175781 4.195312 9.375 9.375 9.375 5.175781 0 9.375-4.199219 9.375-9.375 0-27.238281-7.460938-53.296875-21.652344-76.105469 37.65625-10.558594 80-1.335938 110.105469 28.304688 28.105469 27.71875 42.34375 70.78125 29.027343 114.3125l-72.105468 234.875c-9.9375 32.363281-39.359375 54.101562-73.222656 54.101562h-.023438c-7.324219 0-14.566406-1.039062-21.527344-3.0625-4.859375-1.476562-10.175781 1.367188-11.636718 6.363281-1.460938 4.996094 1.421874 10.183594 6.375 11.621094 8.648437 2.539063 17.648437 3.828125 26.75 3.828125h.035156c42.195312 0 78.972656-27.640625 91.175781-67.351562l72.097656-234.875c14.917969-48.664063.636719-99.203126-33.773437-133.160157zm0 0" />
</svg>
