<?xml version="1.0" encoding="UTF-8" standalone="no"?>
<svg
   xmlns:dc="http://purl.org/dc/elements/1.1/"
   xmlns:cc="http://creativecommons.org/ns#"
   xmlns:rdf="http://www.w3.org/1999/02/22-rdf-syntax-ns#"
   xmlns:svg="http://www.w3.org/2000/svg"
   xmlns="http://www.w3.org/2000/svg"
   xmlns:xlink="http://www.w3.org/1999/xlink"
   xmlns:sodipodi="http://sodipodi.sourceforge.net/DTD/sodipodi-0.dtd"
   xmlns:inkscape="http://www.inkscape.org/namespaces/inkscape"
   inkscape:version="1.0 (4035a4fb49, 2020-05-01)"
   sodipodi:docname="pinterestDarkGreen.svg"
   xml:space="preserve"
   style="enable-background:new 0 0 612 612;"
   viewBox="0 0 612 612"
   height="612px"
   width="612px"
   y="0px"
   x="0px"
   id="Capa_1"
   version="1.1"><metadata
   id="metadata73"><rdf:RDF><cc:Work
       rdf:about=""><dc:format>image/svg+xml</dc:format><dc:type
         rdf:resource="http://purl.org/dc/dcmitype/StillImage" /><dc:title></dc:title></cc:Work></rdf:RDF></metadata><defs
   id="defs71"><linearGradient
     id="linearGradient902"
     inkscape:collect="always"><stop
       id="stop898"
       offset="0"
       style="stop-color:#d7e3df;stop-opacity:1;" /><stop
       id="stop900"
       offset="1"
       style="stop-color:#d7e3df;stop-opacity:0;" /></linearGradient><linearGradient
     gradientUnits="userSpaceOnUse"
     y2="306"
     x2="547.9997"
     y1="306"
     x1="64"
     id="linearGradient904"
     xlink:href="#linearGradient902"
     inkscape:collect="always" /></defs><sodipodi:namedview
   inkscape:current-layer="Capa_1"
   inkscape:window-maximized="1"
   inkscape:window-y="-12"
   inkscape:window-x="97"
   inkscape:cy="344.40439"
   inkscape:cx="216.795"
   inkscape:zoom="0.68627451"
   showgrid="false"
   id="namedview69"
   inkscape:window-height="1040"
   inkscape:window-width="1811"
   inkscape:pageshadow="2"
   inkscape:pageopacity="0"
   guidetolerance="10"
   gridtolerance="10"
   objecttolerance="10"
   borderopacity="1"
   bordercolor="#666666"
   pagecolor="#ffffff" />
<g
   style="stroke:none;stroke-opacity:1;fill:#0d4740;fill-opacity:1"
   id="g36">
	<g
   style="stroke:none;stroke-opacity:1;fill:#0d4740;fill-opacity:1"
   id="g4">
		<g
   style="stroke:none;stroke-opacity:1;fill:#0d4740;fill-opacity:1"
   id="group-1svg">
			<path
   style="stroke:none;stroke-opacity:1;fill:#0d4740;fill-opacity:1"
   d="m 185.167,612 c -3.339,0 -11.959,-0.941 -19.842,-9.678 -13.833,-15.348 -18.104,-46.625 -13.066,-95.638 8.659,-84.046 38.82,-194.525 45.362,-217.842 -5.135,-17.298 -19.88,-78.601 12.571,-126.108 15.221,-22.288 40.286,-35.597 67.039,-35.597 20.608,0 39.586,8.377 52.031,22.967 9.892,11.62 20.551,32.704 15.056,67.194 -1.602,7.805 -14.9,70.922 -25.016,91.871 -4.28,8.872 -4.64,21.511 -0.825,29.403 2.437,5.019 5.349,5.669 6.456,5.911 l 1.641,0.369 c 5.406,1.214 11.532,2.582 17.938,2.582 8.29,0 33.5,0 58.682,-58.933 19.647,-46.003 20.55,-95.977 2.339,-130.399 -12.988,-24.55 -34.441,-39.907 -63.768,-45.644 -17.891,-3.504 -34.868,-5.281 -50.478,-5.281 -62.389,0 -87.997,27.2 -97.695,43.411 -55.274,92.336 -15.648,147.62 -13.94,149.93 2.553,3.437 3.534,7.921 2.563,12.095 l -6.902,29.656 c -0.097,0.427 -0.214,0.864 -0.359,1.281 l -7.319,22.064 c -1.34,4.059 -4.407,7.32 -8.368,8.922 -3.951,1.592 -8.417,1.378 -12.212,-0.603 C 144.764,372.73 90.646,343.744 70.988,279.461 56.262,231.283 64.834,177.078 96.48,118.338 149.182,20.541 236.296,0 300.093,0 360.53,0 410.212,18.26 419.27,22.773 459.176,42.654 584.469,120.148 537.69,290.88 496.753,440.306 394.302,456.43 352.152,456.43 c -13.804,0 -24.637,-1.65 -30.18,-3.203 -10.066,-2.825 -24.472,-9.853 -35.732,-15.804 -11.581,45.217 -43.741,151.328 -95.035,173.383 -1.339,0.573 -2.767,0.952 -4.213,1.107 -0.514,0.048 -1.31,0.087 -1.825,0.087 z m 92.065,-455.711 c -16.881,0 -33.354,8.766 -42.994,22.88 -29.093,42.615 -7.902,103.946 -7.678,104.568 1.009,2.854 1.106,5.97 0.262,8.882 -0.359,1.262 -36.334,127.224 -45.585,217.056 -4.922,47.828 1.058,65.35 4.358,71.106 33.995,-22.88 64.729,-113.537 76.717,-168.5 1,-4.553 4.116,-8.368 8.387,-10.241 4.262,-1.874 9.164,-1.593 13.192,0.767 8.688,5.067 33.859,18.968 45.925,22.356 2.116,0.592 10.261,2.126 22.336,2.126 44.053,0 123.1,-18.716 157.453,-144.106 C 549.396,137.961 450.885,71.077 406.678,49.061 399.777,45.615 355.161,29.142 300.092,29.142 c -81.26,0 -141.145,34.665 -177.975,103.024 -27.724,51.468 -35.597,98.015 -23.405,138.378 10.173,33.646 32.481,55.904 47.343,67.621 l 1.049,-3.164 5.349,-22.978 c -11.464,-19.492 -39.47,-83.483 16.153,-176.402 12.872,-21.502 45.926,-57.584 122.682,-57.584 17.473,0 36.344,1.951 56.069,5.814 37.849,7.407 66.864,28.375 83.92,60.613 22.56,42.654 22.064,100.782 -1.311,155.492 -22.026,51.556 -49.983,76.62 -85.454,76.62 -9.639,0 -18.113,-1.902 -24.316,-3.291 l -1.563,-0.349 c -11.464,-2.534 -20.812,-10.223 -26.354,-21.647 -7.688,-15.872 -7.368,-37.897 0.806,-54.808 7.261,-15.027 18.773,-66.049 22.589,-84.444 2.844,-17.939 -0.068,-33.043 -8.562,-43.013 -7.009,-8.212 -17.63,-12.735 -29.88,-12.735 z"
   id="path-1" />
		</g>
	</g>
	<g
   style="stroke:none;stroke-opacity:1;fill:#0d4740;fill-opacity:1"
   id="g6">
	</g>
	<g
   style="stroke:none;stroke-opacity:1;fill:#0d4740;fill-opacity:1"
   id="g8">
	</g>
	<g
   style="stroke:none;stroke-opacity:1;fill:#0d4740;fill-opacity:1"
   id="g10">
	</g>
	<g
   style="stroke:none;stroke-opacity:1;fill:#0d4740;fill-opacity:1"
   id="g12">
	</g>
	<g
   style="stroke:none;stroke-opacity:1;fill:#0d4740;fill-opacity:1"
   id="g14">
	</g>
	<g
   style="stroke:none;stroke-opacity:1;fill:#0d4740;fill-opacity:1"
   id="g16">
	</g>
	<g
   style="stroke:none;stroke-opacity:1;fill:#0d4740;fill-opacity:1"
   id="g18">
	</g>
	<g
   style="stroke:none;stroke-opacity:1;fill:#0d4740;fill-opacity:1"
   id="g20">
	</g>
	<g
   style="stroke:none;stroke-opacity:1;fill:#0d4740;fill-opacity:1"
   id="g22">
	</g>
	<g
   style="stroke:none;stroke-opacity:1;fill:#0d4740;fill-opacity:1"
   id="g24">
	</g>
	<g
   style="stroke:none;stroke-opacity:1;fill:#0d4740;fill-opacity:1"
   id="g26">
	</g>
	<g
   style="stroke:none;stroke-opacity:1;fill:#0d4740;fill-opacity:1"
   id="g28">
	</g>
	<g
   style="stroke:none;stroke-opacity:1;fill:#0d4740;fill-opacity:1"
   id="g30">
	</g>
	<g
   style="stroke:none;stroke-opacity:1;fill:#0d4740;fill-opacity:1"
   id="g32">
	</g>
	<g
   style="stroke:none;stroke-opacity:1;fill:#0d4740;fill-opacity:1"
   id="g34">
	</g>
</g>
<g
   id="g38">
</g>
<g
   id="g40">
</g>
<g
   id="g42">
</g>
<g
   id="g44">
</g>
<g
   id="g46">
</g>
<g
   id="g48">
</g>
<g
   id="g50">
</g>
<g
   id="g52">
</g>
<g
   id="g54">
</g>
<g
   id="g56">
</g>
<g
   id="g58">
</g>
<g
   id="g60">
</g>
<g
   id="g62">
</g>
<g
   id="g64">
</g>
<g
   id="g66">
</g>
</svg>
