<?xml version="1.0" encoding="UTF-8" standalone="no"?>
<svg
   xmlns:dc="http://purl.org/dc/elements/1.1/"
   xmlns:cc="http://creativecommons.org/ns#"
   xmlns:rdf="http://www.w3.org/1999/02/22-rdf-syntax-ns#"
   xmlns:svg="http://www.w3.org/2000/svg"
   xmlns="http://www.w3.org/2000/svg"
   xmlns:sodipodi="http://sodipodi.sourceforge.net/DTD/sodipodi-0.dtd"
   xmlns:inkscape="http://www.inkscape.org/namespaces/inkscape"
   inkscape:version="1.0 (4035a4fb49, 2020-05-01)"
   sodipodi:docname="WhatsupLightGreen.svg"
   xml:space="preserve"
   viewBox="0 0 208 208"
   version="1.1"
   id="whatsup"
   enable-background="new 0 0 208 208"><metadata
     id="metadata13"><rdf:RDF><cc:Work
         rdf:about=""><dc:format>image/svg+xml</dc:format><dc:type
           rdf:resource="http://purl.org/dc/dcmitype/StillImage" /><dc:title></dc:title></cc:Work></rdf:RDF></metadata><defs
     id="defs11" /><sodipodi:namedview
     inkscape:current-layer="whatsup"
     inkscape:window-maximized="1"
     inkscape:window-y="-12"
     inkscape:window-x="97"
     inkscape:cy="158.26484"
     inkscape:cx="59.89301"
     inkscape:zoom="1.4278118"
     showgrid="false"
     id="namedview9"
     inkscape:window-height="1040"
     inkscape:window-width="1811"
     inkscape:pageshadow="2"
     inkscape:pageopacity="0"
     guidetolerance="10"
     gridtolerance="10"
     objecttolerance="10"
     borderopacity="1"
     bordercolor="#666666"
     pagecolor="#ffffff" /><g
     style="fill:#d7e3df;fill-opacity:1;stroke:none;stroke-opacity:1"
     id="g6"><path
       style="fill:#d7e3df;fill-opacity:1;stroke:none;stroke-opacity:1"
       id="path2"
       d="M 104,0 C 46.6523,0 0,46.6524 0,104 c 0,19.5624 5.4375,38.5548 15.7459,55.0468 -4.1052,14.3948 -11.5272,41.6172 -11.6052,41.9024 -0.3828,1.4064 0.0273,2.91 1.078,3.9256 1.0508,1.012 2.5704,1.3712 3.9568,0.9496 L 50.3983,193.1408 C 66.5467,202.8672 85.0391,208 104,208 161.3475,208 208,161.3476 208,104 208,46.6524 161.3475,0 104,0 Z m 0,200 c -18.0745,0 -35.6837,-5.0508 -50.9257,-14.6056 -0.6448,-0.4024 -1.3828,-0.6092 -2.1252,-0.6092 -0.3944,0 -0.7928,0.0584 -1.1756,0.1756 l -35.9964,11.0784 c 2.6448,-9.6525 7.3949,-26.918 10.1524,-36.5196 0.3204,-1.1132 0.1408,-2.3124 -0.488,-3.2852 C 13.34,140.6916 8,122.6288 8,104 8,51.0664 51.0663,8 104,8 c 52.9335,0 96,43.0664 96,96 0,52.9336 -43.0665,96 -96,96 z" /><path
       style="fill:#d7e3df;fill-opacity:1;stroke:none;stroke-opacity:1"
       id="path4"
       d="m 171.9415,128.504 c -7.3832,-4.1016 -13.672,-8.2112 -18.262,-11.2112 -3.504,-2.2888 -6.0352,-3.9412 -7.8904,-4.8708 -5.1876,-2.59 -9.1211,-0.758 -10.6171,0.75 -0.1877,0.1872 -0.3557,0.3904 -0.5,0.6092 -5.3869,8.082 -12.4261,15.8164 -14.4845,16.2304 -2.3792,-0.3708 -13.5195,-6.7032 -24.594,-15.9256 C 84.2891,104.664 77.1795,95.6444 76.1327,89.504 83.3867,82.0392 86,77.3436 86,72 86,66.492 73.1523,43.496 70.828,41.172 68.496,38.8436 63.2459,38.4804 55.2147,40.078 c -0.7732,0.1564 -1.4844,0.5352 -2.0427,1.094 -0.9729,0.9724 -23.7149,24.16 -12.9065,52.2656 11.8632,30.8436 42.3164,66.6952 81.1408,72.5196 4.41,0.66 8.5468,0.988 12.4217,0.988 22.84,0 36.3203,-11.492 40.1171,-34.2888 0.2776,-1.668 -0.5232,-3.332 -2.0036,-4.1524 z m -49.348,29.5388 C 81.5391,151.8868 55.6755,111.2108 47.7343,90.5624 39.8555,70.082 54.3867,51.8244 58.0351,47.6952 61.004,47.1916 64.1251,46.9804 65.4295,47.1836 68.1523,50.9728 77.5859,68.7928 78,72 78,74.1016 77.3163,77.0236 69.172,85.172 68.4219,85.922 68,86.9376 68,88 c 0,20.9452 44.1755,50 52,50 6.8047,0 15.6755,-11.4376 20.7263,-18.8868 0.2932,0.0116 0.7852,0.1132 1.4844,0.4648 1.4416,0.7228 3.9376,2.3516 7.094,4.414 4.168,2.7228 9.7033,6.34 16.238,10.086 -2.9684,14.2812 -11.2616,28.7268 -42.9492,23.9648 z" /></g></svg>
